# MagicaVoxel @ Ephtracy

# group
o 

# material
mtllib MonsterBody.mtl
usemtl palette

# normals
vn -1 0 0
vn 1 0 0
vn 0 0 1
vn 0 0 -1
vn 0 -1 0
vn 0 1 0

# texcoords
vt 0.115234 0.5
vt 0.255859 0.5
vt 0.544922 0.5

# verts
v -0.5 0 0.5
v -0.5 0 0.2
v -0.5 0 -0.5
v -0.5 0.1 0.5
v -0.5 0.1 0.2
v -0.5 0.1 0.1
v -0.5 0.1 -0.1
v -0.5 0.1 -0.5
v -0.5 0.2 0.1
v -0.5 0.2 -0.1
v -0.4 0.1 0.4
v -0.4 0.1 0.2
v -0.4 0.1 0.1
v -0.4 0.1 -0.1
v -0.4 0.1 -0.4
v -0.4 0.2 0.4
v -0.4 0.2 0.1
v -0.4 0.2 0
v -0.4 0.2 -0.1
v -0.4 0.2 -0.4
v -0.4 0.3 0.1
v -0.4 0.3 0
v -0.3 0.1 -0.4
v -0.3 0.1 -0.5
v -0.3 0.2 0.3
v -0.3 0.2 0.2
v -0.3 0.2 0.1
v -0.3 0.2 0
v -0.3 0.2 -0.3
v -0.3 0.2 -0.4
v -0.3 0.2 -0.5
v -0.3 0.3 0.3
v -0.3 0.3 0.2
v -0.3 0.3 0.1
v -0.3 0.3 0
v -0.3 0.3 -0.3
v -0.2 0.1 0.5
v -0.2 0.1 0.4
v -0.2 0.2 0.5
v -0.2 0.2 0.4
v -0.2 0.3 0.2
v -0.2 0.3 -0.2
v -0.2 0.4 0.2
v -0.2 0.4 -0.2
v -0.1 0.4 0.1
v -0.1 0.4 -0.1
v -0.1 0.5 0.1
v -0.1 0.5 0
v -0.1 0.5 -0.1
v -0.1 0.6 0
v -0.1 0.6 -0.1
v 0 0.2 0.4
v 0 0.2 0.3
v 0 0.2 -0.3
v 0 0.2 -0.4
v 0 0.3 0.4
v 0 0.3 0.3
v 0 0.3 0.2
v 0 0.3 -0.3
v 0 0.3 -0.4
v 0 0.4 0.3
v 0 0.4 0.2
v 0 0.4 -0.1
v 0 0.4 -0.2
v 0 0.5 -0.1
v 0 0.5 -0.2
v 0.3 0.2 -0.3
v 0.3 0.2 -0.4
v 0.3 0.3 -0.3
v 0.3 0.3 -0.4
v -0.2 0.1 -0.4
v -0.2 0.1 -0.5
v -0.2 0.2 -0.4
v -0.2 0.2 -0.5
v -0.1 0.1 0.5
v -0.1 0.1 0.4
v -0.1 0.2 0.5
v -0.1 0.2 0.4
v 0.1 0.2 0.4
v 0.1 0.2 0.3
v 0.1 0.2 -0.3
v 0.1 0.2 -0.4
v 0.1 0.3 0.4
v 0.1 0.3 0.3
v 0.1 0.3 0.2
v 0.1 0.3 -0.3
v 0.1 0.3 -0.4
v 0.1 0.4 0.3
v 0.1 0.4 0.2
v 0.1 0.4 0.1
v 0.1 0.4 0
v 0.1 0.4 -0.1
v 0.1 0.4 -0.2
v 0.1 0.5 0.1
v 0.1 0.5 0
v 0.1 0.5 -0.1
v 0.1 0.5 -0.2
v 0.1 0.6 0
v 0.1 0.6 -0.1
v 0.2 0.3 0.2
v 0.2 0.3 -0.2
v 0.2 0.4 0.2
v 0.2 0.4 0
v 0.2 0.4 -0.1
v 0.2 0.4 -0.2
v 0.2 0.5 0
v 0.2 0.5 -0.1
v 0.3 0.2 0.3
v 0.3 0.2 0.2
v 0.3 0.2 0.1
v 0.3 0.2 -0.3
v 0.3 0.3 0.3
v 0.3 0.3 0.2
v 0.3 0.3 0.1
v 0.3 0.3 -0.3
v 0.4 0.1 0.4
v 0.4 0.1 -0.3
v 0.4 0.1 -0.4
v 0.4 0.2 0.4
v 0.4 0.2 0.2
v 0.4 0.2 0.1
v 0.4 0.2 -0.3
v 0.4 0.3 0.2
v 0.4 0.3 0.1
v 0.4 0.3 -0.3
v 0.4 0.3 -0.4
v 0.5 0 0.5
v 0.5 0 -0.3
v 0.5 0 -0.5
v 0.5 0.1 0.5
v 0.5 0.1 -0.3
v 0.5 0.1 -0.5
v -0.5 0 0.5
v -0.5 0.1 0.5
v -0.4 0 0.5
v -0.4 0.1 0.5
v -0.2 0.1 0.5
v -0.2 0.2 0.5
v -0.1 0.1 0.5
v -0.1 0.2 0.5
v 0.5 0 0.5
v 0.5 0.1 0.5
v -0.4 0.1 0.4
v -0.4 0.2 0.4
v -0.2 0.1 0.4
v -0.2 0.2 0.4
v -0.1 0.1 0.4
v -0.1 0.2 0.4
v 0 0.2 0.4
v 0 0.3 0.4
v 0.1 0.2 0.4
v 0.1 0.3 0.4
v 0.4 0.1 0.4
v 0.4 0.2 0.4
v -0.3 0.2 0.3
v -0.3 0.3 0.3
v 0 0.2 0.3
v 0 0.3 0.3
v 0 0.4 0.3
v 0.1 0.2 0.3
v 0.1 0.3 0.3
v 0.1 0.4 0.3
v 0.3 0.2 0.3
v 0.3 0.3 0.3
v -0.2 0.3 0.2
v -0.2 0.4 0.2
v 0 0.3 0.2
v 0 0.4 0.2
v 0.1 0.3 0.2
v 0.1 0.4 0.2
v 0.2 0.3 0.2
v 0.2 0.4 0.2
v 0.3 0.2 0.2
v 0.3 0.3 0.2
v 0.4 0.2 0.2
v 0.4 0.3 0.2
v -0.5 0.1 0.1
v -0.5 0.2 0.1
v -0.4 0.1 0.1
v -0.4 0.2 0.1
v -0.4 0.3 0.1
v -0.3 0.2 0.1
v -0.3 0.3 0.1
v -0.1 0.4 0.1
v -0.1 0.5 0.1
v 0 0.4 0.1
v 0.1 0.4 0.1
v 0.1 0.5 0.1
v -0.1 0.5 0
v -0.1 0.6 0
v 0.1 0.4 0
v 0.1 0.5 0
v 0.1 0.6 0
v 0.2 0.4 0
v 0.2 0.5 0
v 0.3 0.2 -0.3
v 0.3 0.3 -0.3
v 0.4 0.2 -0.3
v 0.4 0.3 -0.3
v 0.3 0.2 0.1
v 0.3 0.3 0.1
v 0.4 0.2 0.1
v 0.4 0.3 0.1
v -0.4 0.2 0
v -0.4 0.3 0
v -0.3 0.2 0
v -0.3 0.3 0
v -0.5 0.1 -0.1
v -0.5 0.2 -0.1
v -0.4 0.1 -0.1
v -0.4 0.2 -0.1
v -0.1 0.4 -0.1
v -0.1 0.5 -0.1
v -0.1 0.6 -0.1
v 0 0.4 -0.1
v 0 0.5 -0.1
v 0.1 0.4 -0.1
v 0.1 0.5 -0.1
v 0.1 0.6 -0.1
v 0.2 0.4 -0.1
v 0.2 0.5 -0.1
v -0.2 0.3 -0.2
v -0.2 0.4 -0.2
v 0 0.4 -0.2
v 0 0.5 -0.2
v 0.1 0.3 -0.2
v 0.1 0.4 -0.2
v 0.1 0.5 -0.2
v 0.2 0.3 -0.2
v 0.2 0.4 -0.2
v -0.3 0.2 -0.3
v -0.3 0.3 -0.3
v 0 0.2 -0.3
v 0 0.3 -0.3
v 0.1 0.2 -0.3
v 0.1 0.3 -0.3
v 0.3 0.2 -0.3
v 0.3 0.3 -0.3
v -0.4 0.1 -0.4
v -0.4 0.2 -0.4
v -0.3 0.1 -0.4
v -0.3 0.2 -0.4
v -0.2 0.1 -0.4
v -0.2 0.2 -0.4
v 0 0.2 -0.4
v 0 0.3 -0.4
v 0.1 0.1 -0.4
v 0.1 0.2 -0.4
v 0.1 0.3 -0.4
v 0.3 0.2 -0.4
v 0.3 0.3 -0.4
v 0.4 0.1 -0.4
v 0.4 0.3 -0.4
v -0.5 0 -0.5
v -0.5 0.1 -0.5
v -0.3 0.1 -0.5
v -0.3 0.2 -0.5
v -0.2 0.1 -0.5
v -0.2 0.2 -0.5
v 0.1 0 -0.5
v 0.1 0.1 -0.5
v 0.5 0 -0.5
v 0.5 0.1 -0.5
v -0.5 0 0.5
v -0.4 0 0.5
v 0.5 0 0.5
v -0.5 0 0.2
v -0.4 0 0.2
v 0.1 0 -0.3
v 0.5 0 -0.3
v -0.5 0 -0.5
v 0.1 0 -0.5
v 0.5 0 -0.5
v -0.5 0.1 0.5
v -0.4 0.1 0.5
v -0.2 0.1 0.5
v -0.1 0.1 0.5
v 0.5 0.1 0.5
v -0.4 0.1 0.4
v -0.2 0.1 0.4
v -0.1 0.1 0.4
v 0.4 0.1 0.4
v -0.5 0.1 0.2
v -0.4 0.1 0.2
v -0.5 0.1 0.1
v -0.4 0.1 0.1
v -0.5 0.1 -0.1
v -0.4 0.1 -0.1
v 0.4 0.1 -0.3
v 0.5 0.1 -0.3
v -0.4 0.1 -0.4
v -0.3 0.1 -0.4
v -0.2 0.1 -0.4
v 0.1 0.1 -0.4
v 0.4 0.1 -0.4
v -0.5 0.1 -0.5
v -0.3 0.1 -0.5
v -0.2 0.1 -0.5
v 0.1 0.1 -0.5
v 0.5 0.1 -0.5
v -0.2 0.2 0.5
v -0.1 0.2 0.5
v -0.4 0.2 0.4
v -0.2 0.2 0.4
v -0.1 0.2 0.4
v 0 0.2 0.4
v 0.1 0.2 0.4
v 0.4 0.2 0.4
v -0.3 0.2 0.3
v 0 0.2 0.3
v 0.1 0.2 0.3
v 0.3 0.2 0.3
v -0.3 0.2 0.2
v 0.3 0.2 0.2
v 0.4 0.2 0.2
v -0.5 0.2 0.1
v -0.4 0.2 0.1
v -0.3 0.2 0.1
v 0.3 0.2 0.1
v 0.4 0.2 0.1
v -0.4 0.2 0
v -0.3 0.2 0
v -0.5 0.2 -0.1
v -0.4 0.2 -0.1
v -0.3 0.2 -0.3
v 0 0.2 -0.3
v 0.1 0.2 -0.3
v 0.3 0.2 -0.3
v 0.4 0.2 -0.3
v -0.4 0.2 -0.4
v -0.3 0.2 -0.4
v -0.2 0.2 -0.4
v 0 0.2 -0.4
v 0.1 0.2 -0.4
v 0.3 0.2 -0.4
v -0.3 0.2 -0.5
v -0.2 0.2 -0.5
v 0 0.3 0.4
v 0.1 0.3 0.4
v -0.3 0.3 0.3
v 0 0.3 0.3
v 0.1 0.3 0.3
v 0.3 0.3 0.3
v -0.3 0.3 0.2
v -0.2 0.3 0.2
v 0 0.3 0.2
v 0.1 0.3 0.2
v 0.2 0.3 0.2
v 0.3 0.3 0.2
v 0.4 0.3 0.2
v -0.4 0.3 0.1
v -0.3 0.3 0.1
v 0.3 0.3 0.1
v 0.4 0.3 0.1
v -0.4 0.3 0
v -0.3 0.3 0
v -0.2 0.3 -0.2
v 0.1 0.3 -0.2
v 0.2 0.3 -0.2
v -0.3 0.3 -0.3
v 0 0.3 -0.3
v 0.1 0.3 -0.3
v 0.3 0.3 -0.3
v 0.4 0.3 -0.3
v 0 0.3 -0.4
v 0.1 0.3 -0.4
v 0.3 0.3 -0.4
v 0.4 0.3 -0.4
v 0 0.4 0.3
v 0.1 0.4 0.3
v -0.2 0.4 0.2
v 0 0.4 0.2
v 0.1 0.4 0.2
v 0.2 0.4 0.2
v -0.1 0.4 0.1
v 0 0.4 0.1
v 0.1 0.4 0.1
v 0.1 0.4 0
v 0.2 0.4 0
v -0.1 0.4 -0.1
v 0 0.4 -0.1
v 0.1 0.4 -0.1
v 0.2 0.4 -0.1
v -0.2 0.4 -0.2
v 0 0.4 -0.2
v 0.1 0.4 -0.2
v 0.2 0.4 -0.2
v -0.1 0.5 0.1
v 0.1 0.5 0.1
v -0.1 0.5 0
v 0.1 0.5 0
v 0.2 0.5 0
v 0 0.5 -0.1
v 0.1 0.5 -0.1
v 0.2 0.5 -0.1
v 0 0.5 -0.2
v 0.1 0.5 -0.2
v -0.1 0.6 0
v 0.1 0.6 0
v -0.1 0.6 -0.1
v 0.1 0.6 -0.1

# faces
f 4/2/1 2/2/1 1/2/1
f 5/3/1 3/3/1 2/3/1
f 5/2/1 2/2/1 4/2/1
f 6/3/1 3/3/1 5/3/1
f 7/3/1 3/3/1 6/3/1
f 8/3/1 3/3/1 7/3/1
f 9/3/1 7/3/1 6/3/1
f 10/3/1 7/3/1 9/3/1
f 16/3/1 12/3/1 11/3/1
f 16/3/1 13/3/1 12/3/1
f 17/3/1 13/3/1 16/3/1
f 19/3/1 15/3/1 14/3/1
f 20/3/1 15/3/1 19/3/1
f 21/3/1 18/3/1 17/3/1
f 22/3/1 18/3/1 21/3/1
f 30/3/1 24/3/1 23/3/1
f 31/3/1 24/3/1 30/3/1
f 32/2/1 26/2/1 25/2/1
f 33/3/1 27/3/1 26/3/1
f 33/2/1 26/2/1 32/2/1
f 34/3/1 27/3/1 33/3/1
f 35/3/1 29/3/1 28/3/1
f 36/3/1 29/3/1 35/3/1
f 39/3/1 38/3/1 37/3/1
f 40/3/1 38/3/1 39/3/1
f 43/3/1 42/3/1 41/3/1
f 44/3/1 42/3/1 43/3/1
f 47/3/1 46/3/1 45/3/1
f 48/3/1 46/3/1 47/3/1
f 49/3/1 46/3/1 48/3/1
f 50/2/1 49/2/1 48/2/1
f 51/2/1 49/2/1 50/2/1
f 56/1/1 53/1/1 52/1/1
f 57/1/1 53/1/1 56/1/1
f 59/3/1 55/3/1 54/3/1
f 60/3/1 55/3/1 59/3/1
f 61/2/1 58/2/1 57/2/1
f 62/2/1 58/2/1 61/2/1
f 65/3/1 64/3/1 63/3/1
f 66/3/1 64/3/1 65/3/1
f 69/2/1 68/2/1 67/2/1
f 70/2/1 68/2/1 69/2/1
f 71/3/2 72/3/2 73/3/2
f 73/3/2 72/3/2 74/3/2
f 75/3/2 76/3/2 77/3/2
f 77/3/2 76/3/2 78/3/2
f 79/1/2 80/1/2 83/1/2
f 83/1/2 80/1/2 84/1/2
f 81/3/2 82/3/2 86/3/2
f 86/3/2 82/3/2 87/3/2
f 84/2/2 85/2/2 88/2/2
f 88/2/2 85/2/2 89/2/2
f 90/3/2 91/3/2 94/3/2
f 94/3/2 91/3/2 95/3/2
f 92/3/2 93/3/2 96/3/2
f 96/3/2 93/3/2 97/3/2
f 95/2/2 96/2/2 98/2/2
f 98/2/2 96/2/2 99/2/2
f 100/2/2 101/2/2 102/2/2
f 102/2/2 101/2/2 103/2/2
f 103/2/2 101/2/2 104/2/2
f 104/2/2 101/2/2 105/2/2
f 103/1/2 104/1/2 106/1/2
f 106/1/2 104/1/2 107/1/2
f 108/2/2 109/2/2 112/2/2
f 112/2/2 109/2/2 113/2/2
f 110/2/2 111/2/2 114/2/2
f 114/2/2 111/2/2 115/2/2
f 116/3/2 117/3/2 119/3/2
f 119/3/2 117/3/2 120/3/2
f 120/3/2 117/3/2 121/3/2
f 117/2/2 118/2/2 122/2/2
f 121/3/2 117/3/2 122/3/2
f 120/1/2 121/1/2 123/1/2
f 123/1/2 121/1/2 124/1/2
f 122/2/2 118/2/2 125/2/2
f 125/2/2 118/2/2 126/2/2
f 127/3/2 128/3/2 130/3/2
f 128/2/2 129/2/2 131/2/2
f 130/3/2 128/3/2 131/3/2
f 131/2/2 129/2/2 132/2/2
f 135/2/3 134/2/3 133/2/3
f 136/2/3 134/2/3 135/2/3
f 137/3/3 136/3/3 135/3/3
f 139/3/3 137/3/3 135/3/3
f 139/3/3 138/3/3 137/3/3
f 140/3/3 138/3/3 139/3/3
f 141/3/3 139/3/3 135/3/3
f 142/3/3 139/3/3 141/3/3
f 145/3/3 144/3/3 143/3/3
f 146/3/3 144/3/3 145/3/3
f 149/3/3 148/3/3 147/3/3
f 151/3/3 149/3/3 147/3/3
f 151/1/3 150/1/3 149/1/3
f 152/1/3 150/1/3 151/1/3
f 153/3/3 151/3/3 147/3/3
f 154/3/3 151/3/3 153/3/3
f 157/2/3 156/2/3 155/2/3
f 158/2/3 156/2/3 157/2/3
f 161/2/3 159/2/3 158/2/3
f 162/2/3 159/2/3 161/2/3
f 163/2/3 161/2/3 160/2/3
f 164/2/3 161/2/3 163/2/3
f 167/3/3 166/3/3 165/3/3
f 168/3/3 166/3/3 167/3/3
f 171/2/3 170/2/3 169/2/3
f 172/2/3 170/2/3 171/2/3
f 175/1/3 174/1/3 173/1/3
f 176/1/3 174/1/3 175/1/3
f 179/3/3 178/3/3 177/3/3
f 180/3/3 178/3/3 179/3/3
f 182/3/3 181/3/3 180/3/3
f 183/3/3 181/3/3 182/3/3
f 186/3/3 185/3/3 184/3/3
f 187/3/3 185/3/3 186/3/3
f 188/3/3 185/3/3 187/3/3
f 192/2/3 190/2/3 189/2/3
f 193/2/3 190/2/3 192/2/3
f 194/1/3 192/1/3 191/1/3
f 195/1/3 192/1/3 194/1/3
f 198/2/3 197/2/3 196/2/3
f 199/2/3 197/2/3 198/2/3
f 200/1/4 201/1/4 202/1/4
f 202/1/4 201/1/4 203/1/4
f 204/3/4 205/3/4 206/3/4
f 206/3/4 205/3/4 207/3/4
f 208/3/4 209/3/4 210/3/4
f 210/3/4 209/3/4 211/3/4
f 212/3/4 213/3/4 215/3/4
f 213/2/4 214/2/4 216/2/4
f 215/3/4 213/3/4 216/3/4
f 216/2/4 214/2/4 218/2/4
f 218/2/4 214/2/4 219/2/4
f 217/1/4 218/1/4 220/1/4
f 220/1/4 218/1/4 221/1/4
f 222/3/4 223/3/4 224/3/4
f 222/3/4 224/3/4 226/3/4
f 224/3/4 225/3/4 226/3/4
f 226/3/4 225/3/4 227/3/4
f 227/3/4 225/3/4 228/3/4
f 226/2/4 227/2/4 229/2/4
f 229/2/4 227/2/4 230/2/4
f 231/3/4 232/3/4 233/3/4
f 233/3/4 232/3/4 234/3/4
f 235/2/4 236/2/4 237/2/4
f 237/2/4 236/2/4 238/2/4
f 239/3/4 240/3/4 241/3/4
f 241/3/4 240/3/4 242/3/4
f 243/3/4 244/3/4 245/3/4
f 243/3/4 245/3/4 247/3/4
f 245/3/4 246/3/4 247/3/4
f 247/3/4 246/3/4 248/3/4
f 248/3/4 246/3/4 249/3/4
f 247/2/4 248/2/4 250/2/4
f 247/2/4 250/2/4 252/2/4
f 250/2/4 251/2/4 252/2/4
f 252/2/4 251/2/4 253/2/4
f 254/3/4 255/3/4 256/3/4
f 254/3/4 256/3/4 258/3/4
f 256/3/4 257/3/4 258/3/4
f 258/3/4 257/3/4 259/3/4
f 254/3/4 258/3/4 260/3/4
f 260/3/4 258/3/4 261/3/4
f 260/2/4 261/2/4 262/2/4
f 262/2/4 261/2/4 263/2/4
f 267/2/5 265/2/5 264/2/5
f 268/3/5 266/3/5 265/3/5
f 268/2/5 265/2/5 267/2/5
f 269/3/5 268/3/5 267/3/5
f 269/3/5 266/3/5 268/3/5
f 270/3/5 266/3/5 269/3/5
f 271/3/5 269/3/5 267/3/5
f 272/2/5 270/2/5 269/2/5
f 272/3/5 269/3/5 271/3/5
f 273/2/5 270/2/5 272/2/5
f 274/2/6 275/2/6 279/2/6
f 275/3/6 276/3/6 279/3/6
f 279/3/6 276/3/6 280/3/6
f 277/3/6 278/3/6 281/3/6
f 281/3/6 278/3/6 282/3/6
f 274/2/6 279/2/6 283/2/6
f 283/2/6 279/2/6 284/2/6
f 283/3/6 284/3/6 285/3/6
f 285/3/6 284/3/6 286/3/6
f 282/3/6 278/3/6 289/3/6
f 289/3/6 278/3/6 290/3/6
f 287/3/6 288/3/6 291/3/6
f 289/2/6 290/2/6 295/2/6
f 287/3/6 291/3/6 296/3/6
f 291/3/6 292/3/6 296/3/6
f 296/3/6 292/3/6 297/3/6
f 293/3/6 294/3/6 298/3/6
f 294/2/6 295/2/6 299/2/6
f 298/3/6 294/3/6 299/3/6
f 295/2/6 290/2/6 300/2/6
f 299/2/6 295/2/6 300/2/6
f 301/3/6 302/3/6 304/3/6
f 304/3/6 302/3/6 305/3/6
f 303/3/6 304/3/6 309/3/6
f 304/3/6 305/3/6 309/3/6
f 305/3/6 306/3/6 309/3/6
f 309/3/6 306/3/6 310/3/6
f 307/3/6 308/3/6 311/3/6
f 311/3/6 308/3/6 312/3/6
f 303/3/6 309/3/6 313/3/6
f 312/3/6 308/3/6 314/3/6
f 314/3/6 308/3/6 315/3/6
f 303/3/6 313/3/6 317/3/6
f 317/3/6 313/3/6 318/3/6
f 316/3/6 317/3/6 321/3/6
f 316/3/6 321/3/6 323/3/6
f 321/3/6 322/3/6 323/3/6
f 323/3/6 322/3/6 324/3/6
f 324/3/6 322/3/6 325/3/6
f 319/3/6 320/3/6 328/3/6
f 328/3/6 320/3/6 329/3/6
f 325/3/6 326/3/6 330/3/6
f 324/3/6 325/3/6 330/3/6
f 330/3/6 326/3/6 331/3/6
f 331/3/6 326/3/6 332/3/6
f 332/3/6 326/3/6 333/3/6
f 327/2/6 328/2/6 334/2/6
f 334/2/6 328/2/6 335/2/6
f 331/3/6 332/3/6 336/3/6
f 336/3/6 332/3/6 337/3/6
f 338/1/6 339/1/6 341/1/6
f 341/1/6 339/1/6 342/1/6
f 340/2/6 341/2/6 344/2/6
f 344/2/6 341/2/6 345/2/6
f 345/2/6 341/2/6 346/2/6
f 342/2/6 343/2/6 347/2/6
f 347/2/6 343/2/6 348/2/6
f 348/2/6 343/2/6 349/2/6
f 344/3/6 345/3/6 352/3/6
f 349/1/6 350/1/6 353/1/6
f 348/2/6 349/2/6 353/2/6
f 353/1/6 350/1/6 354/1/6
f 351/3/6 352/3/6 355/3/6
f 352/3/6 345/3/6 356/3/6
f 355/3/6 352/3/6 356/3/6
f 356/3/6 345/3/6 357/3/6
f 348/2/6 353/2/6 359/2/6
f 357/3/6 358/3/6 360/3/6
f 356/3/6 357/3/6 360/3/6
f 360/3/6 358/3/6 361/3/6
f 358/2/6 359/2/6 362/2/6
f 361/3/6 358/3/6 362/3/6
f 359/2/6 353/2/6 363/2/6
f 362/2/6 359/2/6 363/2/6
f 361/3/6 362/3/6 365/3/6
f 365/3/6 362/3/6 366/3/6
f 363/2/6 364/2/6 367/2/6
f 367/2/6 364/2/6 368/2/6
f 369/2/6 370/2/6 372/2/6
f 372/2/6 370/2/6 373/2/6
f 371/3/6 372/3/6 375/3/6
f 373/2/6 374/2/6 376/2/6
f 375/3/6 372/3/6 376/3/6
f 372/2/6 373/2/6 376/2/6
f 376/2/6 374/2/6 377/2/6
f 377/2/6 374/2/6 378/2/6
f 378/2/6 374/2/6 379/2/6
f 371/3/6 375/3/6 380/3/6
f 371/3/6 380/3/6 384/3/6
f 380/3/6 381/3/6 384/3/6
f 384/3/6 381/3/6 385/3/6
f 382/2/6 383/2/6 386/2/6
f 386/2/6 383/2/6 387/2/6
f 388/3/6 389/3/6 390/3/6
f 390/3/6 389/3/6 391/3/6
f 391/1/6 392/1/6 394/1/6
f 394/1/6 392/1/6 395/1/6
f 393/3/6 394/3/6 396/3/6
f 396/3/6 394/3/6 397/3/6
f 398/2/6 399/2/6 400/2/6
f 400/2/6 399/2/6 401/2/6
